<svg width="79" height="95" viewBox="0 0 79 95" fill="none" xmlns="http://www.w3.org/2000/svg">
<path d="M49.0395 34.1263C49.0395 20.9353 43.8702 8.9696 35.48 0C59.6269 2.54611 78.4414 22.772 78.4414 47.3597C78.4414 73.6704 56.8978 95 30.3293 95C18.8279 95 8.27795 90.9903 0 84.3259C19.1459 83.6775 35.5628 72.5455 43.7018 56.5781C45.3643 53.3174 36.231 53.3994 35.7847 47.3624C35.3731 41.7223 49.0395 40.1078 49.0395 34.1263Z" fill="#FFD983"/>
<path d="M50.3759 84.4132C55.5426 84.4132 59.7311 80.2659 59.7311 75.1499C59.7311 70.0338 55.5426 65.8865 50.3759 65.8865C45.2092 65.8865 41.0208 70.0338 41.0208 75.1499C41.0208 80.2659 45.2092 84.4132 50.3759 84.4132Z" fill="#FFCC4D"/>
<path d="M58.6729 20.2934C60.1491 20.2934 61.3458 19.1084 61.3458 17.6467C61.3458 16.185 60.1491 15 58.6729 15C57.1967 15 56 16.185 56 17.6467C56 19.1084 57.1967 20.2934 58.6729 20.2934Z" fill="#FFCC4D"/>
<path d="M30.3292 87.06C31.8054 87.06 33.0021 85.875 33.0021 84.4133C33.0021 82.9516 31.8054 81.7666 30.3292 81.7666C28.853 81.7666 27.6563 82.9516 27.6563 84.4133C27.6563 85.875 28.853 87.06 30.3292 87.06Z" fill="#FFCC4D"/>
<path d="M70.4225 57.9465C73.3749 57.9465 75.7683 55.5765 75.7683 52.6531C75.7683 49.7297 73.3749 47.3597 70.4225 47.3597C67.4701 47.3597 65.0768 49.7297 65.0768 52.6531C65.0768 55.5765 67.4701 57.9465 70.4225 57.9465Z" fill="#FFCC4D"/>
<path d="M35.1325 68.594C37.204 66.4264 39.0884 64.0814 40.7563 61.5777C55.3209 64.8225 61.1691 60.8551 60.3111 63.7136C59.4024 66.7493 47.4893 71.6748 35.1325 68.594ZM51.7125 38.0963C51.7125 41.7514 54.7061 44.713 58.3947 44.713C62.0833 44.713 65.0769 41.7514 65.0769 38.0963C65.0769 34.4413 62.0833 31.4796 58.3947 31.4796C54.7061 31.4796 51.7125 34.4413 51.7125 38.0963Z" fill="#292F33"/>
</svg>
