<svg width="95" height="95" viewBox="0 0 95 95" fill="none" xmlns="http://www.w3.org/2000/svg">
<path d="M47.5 95C73.7335 95 95 73.7335 95 47.5C95 21.2665 73.7335 0 47.5 0C21.2665 0 0 21.2665 0 47.5C0 73.7335 21.2665 95 47.5 95Z" fill="#66757F"/>
<path d="M27.4306 30.75C32.5316 30.75 36.6667 26.6148 36.6667 21.5139C36.6667 16.4129 32.5316 12.2778 27.4306 12.2778C22.3296 12.2778 18.1945 16.4129 18.1945 21.5139C18.1945 26.6148 22.3296 30.75 27.4306 30.75Z" fill="#5B6876"/>
<path d="M52.5 51.8611C56.8723 51.8611 60.4167 48.3167 60.4167 43.9444C60.4167 39.5722 56.8723 36.0278 52.5 36.0278C48.1278 36.0278 44.5834 39.5722 44.5834 43.9444C44.5834 48.3167 48.1278 51.8611 52.5 51.8611Z" fill="#5B6876"/>
<path d="M64.375 83.5278C69.476 83.5278 73.6111 79.3926 73.6111 74.2917C73.6111 69.1907 69.476 65.0555 64.375 65.0555C59.2741 65.0555 55.1389 69.1907 55.1389 74.2917C55.1389 79.3926 59.2741 83.5278 64.375 83.5278Z" fill="#5B6876"/>
<path d="M57.7778 17.5556C60.6926 17.5556 63.0555 15.1926 63.0555 12.2778C63.0555 9.36294 60.6926 7 57.7778 7C54.8629 7 52.5 9.36294 52.5 12.2778C52.5 15.1926 54.8629 17.5556 57.7778 17.5556Z" fill="#5B6876"/>
<path d="M9.63889 53.2778C11.0963 53.2778 12.2778 52.0963 12.2778 50.6389C12.2778 49.1815 11.0963 48 9.63889 48C8.18147 48 7 49.1815 7 50.6389C7 52.0963 8.18147 53.2778 9.63889 53.2778Z" fill="#5B6876"/>
<path d="M78.8889 25.4722C80.3463 25.4722 81.5278 24.2908 81.5278 22.8333C81.5278 21.3759 80.3463 20.1945 78.8889 20.1945C77.4314 20.1945 76.25 21.3759 76.25 22.8333C76.25 24.2908 77.4314 25.4722 78.8889 25.4722Z" fill="#5B6876"/>
<path d="M39.3056 83.5278C40.763 83.5278 41.9444 82.3463 41.9444 80.8889C41.9444 79.4315 40.763 78.25 39.3056 78.25C37.8481 78.25 36.6667 79.4315 36.6667 80.8889C36.6667 82.3463 37.8481 83.5278 39.3056 83.5278Z" fill="#5B6876"/>
<path d="M84.1667 54.5C87.0815 54.5 89.4445 52.1371 89.4445 49.2222C89.4445 46.3074 87.0815 43.9445 84.1667 43.9445C81.2519 43.9445 78.8889 46.3074 78.8889 49.2222C78.8889 52.1371 81.2519 54.5 84.1667 54.5Z" fill="#5B6876"/>
<path d="M27.2778 68.5556C30.1926 68.5556 32.5556 66.1926 32.5556 63.2778C32.5556 60.3629 30.1926 58 27.2778 58C24.3629 58 22 60.3629 22 63.2778C22 66.1926 24.3629 68.5556 27.2778 68.5556Z" fill="#5B6876"/>
</svg>
