<svg width="95" height="96" viewBox="0 0 95 96" fill="none" xmlns="http://www.w3.org/2000/svg">
<path d="M47.5 96C73.7335 96 95 74.7335 95 48.5C95 22.2665 73.7335 1 47.5 1C21.2665 1 0 22.2665 0 48.5C0 74.7335 21.2665 96 47.5 96Z" fill="#FFD983"/>
<path d="M27.7917 28.1111C32.8926 28.1111 37.0278 23.976 37.0278 18.875C37.0278 13.774 32.8926 9.63889 27.7917 9.63889C22.6907 9.63889 18.5555 13.774 18.5555 18.875C18.5555 23.976 22.6907 28.1111 27.7917 28.1111Z" fill="#FFCC4D"/>
<path d="M67.375 83.5278C72.476 83.5278 76.6111 79.3926 76.6111 74.2917C76.6111 69.1907 72.476 65.0555 67.375 65.0555C62.2741 65.0555 58.1389 69.1907 58.1389 74.2917C58.1389 79.3926 62.2741 83.5278 67.375 83.5278Z" fill="#FFCC4D"/>
<path d="M60.7778 17.5556C63.6926 17.5556 66.0556 15.1926 66.0556 12.2778C66.0556 9.36294 63.6926 7 60.7778 7C57.8629 7 55.5 9.36294 55.5 12.2778C55.5 15.1926 57.8629 17.5556 60.7778 17.5556Z" fill="#FFCC4D"/>
<path d="M10.6389 49.2222C12.0963 49.2222 13.2778 48.0407 13.2778 46.5833C13.2778 45.1259 12.0963 43.9444 10.6389 43.9444C9.18147 43.9444 8 45.1259 8 46.5833C8 48.0407 9.18147 49.2222 10.6389 49.2222Z" fill="#FFCC4D"/>
<path d="M81.8889 25.4722C83.3463 25.4722 84.5278 24.2907 84.5278 22.8333C84.5278 21.3759 83.3463 20.1944 81.8889 20.1944C80.4315 20.1944 79.25 21.3759 79.25 22.8333C79.25 24.2907 80.4315 25.4722 81.8889 25.4722Z" fill="#FFCC4D"/>
<path d="M44.9444 83.5278C46.4018 83.5278 47.5833 82.3463 47.5833 80.8889C47.5833 79.4315 46.4018 78.25 44.9444 78.25C43.487 78.25 42.3055 79.4315 42.3055 80.8889C42.3055 82.3463 43.487 83.5278 44.9444 83.5278Z" fill="#FFCC4D"/>
<path d="M87.1667 54.5C90.0815 54.5 92.4445 52.1371 92.4445 49.2222C92.4445 46.3074 90.0815 43.9444 87.1667 43.9444C84.2519 43.9444 81.8889 46.3074 81.8889 49.2222C81.8889 52.1371 84.2519 54.5 87.1667 54.5Z" fill="#FFCC4D"/>
<path d="M18.5555 72.9722C21.4704 72.9722 23.8333 70.6093 23.8333 67.6944C23.8333 64.7796 21.4704 62.4167 18.5555 62.4167C15.6407 62.4167 13.2778 64.7796 13.2778 67.6944C13.2778 70.6093 15.6407 72.9722 18.5555 72.9722Z" fill="#FFCC4D"/>
<path d="M47.5 65.7189C29.0278 65.7189 23.75 58.8103 23.75 62.0746C23.75 65.3442 34.3056 73.8889 47.5 73.8889C60.6944 73.8889 71.25 65.3442 71.25 62.0746C71.25 58.8103 65.9722 65.7189 47.5 65.7189ZM71.25 39.5833C71.25 43.956 67.7033 47.5 63.3333 47.5C58.9633 47.5 55.4167 43.956 55.4167 39.5833C55.4167 35.2107 58.9633 31.6667 63.3333 31.6667C67.7033 31.6667 71.25 35.2107 71.25 39.5833ZM39.5833 39.5833C39.5833 43.956 36.0367 47.5 31.6667 47.5C27.2967 47.5 23.75 43.956 23.75 39.5833C23.75 35.2107 27.2967 31.6667 31.6667 31.6667C36.0367 31.6667 39.5833 35.2107 39.5833 39.5833Z" fill="#292F33"/>
</svg>
